<?xml version="1.0" standalone="no"?><svg xmlns="http://www.w3.org/2000/svg" viewBox="0 0 1440 320"><path fill="#273036" fill-opacity="1" d="M0,64L24,53.3C48,43,96,21,144,37.3C192,53,240,107,288,138.7C336,171,384,181,432,160C480,139,528,85,576,96C624,107,672,181,720,208C768,235,816,213,864,181.3C912,149,960,107,1008,101.3C1056,96,1104,128,1152,138.7C1200,149,1248,139,1296,122.7C1344,107,1392,85,1416,74.7L1440,64L1440,320L1416,320C1392,320,1344,320,1296,320C1248,320,1200,320,1152,320C1104,320,1056,320,1008,320C960,320,912,320,864,320C816,320,768,320,720,320C672,320,624,320,576,320C528,320,480,320,432,320C384,320,336,320,288,320C240,320,192,320,144,320C96,320,48,320,24,320L0,320Z"></path></svg>